<svg xmlns="http://www.w3.org/2000/svg" width="560" height="840" viewBox="0 0 560 840">
    <defs>
      <filter id="shadow" x="-20%" y="-20%" width="140%" height="140%">
        <feDropShadow dx="0" dy="10" stdDeviation="12" flood-color="#6b5540" flood-opacity=".16"/>
      </filter>
    </defs>

    <rect width="560" height="840" rx="18" fill="#f3f8f7"/>
    <g opacity=".22">
      <circle cx="0" cy="0" r="1" fill="#d7c8b5"/><circle cx="89" cy="137" r="2" fill="#d7c8b5"/><circle cx="178" cy="274" r="3" fill="#d7c8b5"/><circle cx="267" cy="411" r="1" fill="#d7c8b5"/><circle cx="356" cy="548" r="2" fill="#d7c8b5"/><circle cx="445" cy="685" r="3" fill="#d7c8b5"/><circle cx="534" cy="822" r="1" fill="#d7c8b5"/><circle cx="63" cy="119" r="2" fill="#d7c8b5"/><circle cx="152" cy="256" r="3" fill="#d7c8b5"/><circle cx="241" cy="393" r="1" fill="#d7c8b5"/><circle cx="330" cy="530" r="2" fill="#d7c8b5"/><circle cx="419" cy="667" r="3" fill="#d7c8b5"/><circle cx="508" cy="804" r="1" fill="#d7c8b5"/><circle cx="37" cy="101" r="2" fill="#d7c8b5"/><circle cx="126" cy="238" r="3" fill="#d7c8b5"/><circle cx="215" cy="375" r="1" fill="#d7c8b5"/><circle cx="304" cy="512" r="2" fill="#d7c8b5"/><circle cx="393" cy="649" r="3" fill="#d7c8b5"/><circle cx="482" cy="786" r="1" fill="#d7c8b5"/><circle cx="11" cy="83" r="2" fill="#d7c8b5"/><circle cx="100" cy="220" r="3" fill="#d7c8b5"/><circle cx="189" cy="357" r="1" fill="#d7c8b5"/><circle cx="278" cy="494" r="2" fill="#d7c8b5"/><circle cx="367" cy="631" r="3" fill="#d7c8b5"/><circle cx="456" cy="768" r="1" fill="#d7c8b5"/><circle cx="545" cy="65" r="2" fill="#d7c8b5"/><circle cx="74" cy="202" r="3" fill="#d7c8b5"/><circle cx="163" cy="339" r="1" fill="#d7c8b5"/><circle cx="252" cy="476" r="2" fill="#d7c8b5"/><circle cx="341" cy="613" r="3" fill="#d7c8b5"/><circle cx="430" cy="750" r="1" fill="#d7c8b5"/><circle cx="519" cy="47" r="2" fill="#d7c8b5"/><circle cx="48" cy="184" r="3" fill="#d7c8b5"/><circle cx="137" cy="321" r="1" fill="#d7c8b5"/><circle cx="226" cy="458" r="2" fill="#d7c8b5"/><circle cx="315" cy="595" r="3" fill="#d7c8b5"/><circle cx="404" cy="732" r="1" fill="#d7c8b5"/><circle cx="493" cy="29" r="2" fill="#d7c8b5"/><circle cx="22" cy="166" r="3" fill="#d7c8b5"/><circle cx="111" cy="303" r="1" fill="#d7c8b5"/><circle cx="200" cy="440" r="2" fill="#d7c8b5"/><circle cx="289" cy="577" r="3" fill="#d7c8b5"/><circle cx="378" cy="714" r="1" fill="#d7c8b5"/><circle cx="467" cy="11" r="2" fill="#d7c8b5"/><circle cx="556" cy="148" r="3" fill="#d7c8b5"/><circle cx="85" cy="285" r="1" fill="#d7c8b5"/><circle cx="174" cy="422" r="2" fill="#d7c8b5"/><circle cx="263" cy="559" r="3" fill="#d7c8b5"/><circle cx="352" cy="696" r="1" fill="#d7c8b5"/><circle cx="441" cy="833" r="2" fill="#d7c8b5"/><circle cx="530" cy="130" r="3" fill="#d7c8b5"/><circle cx="59" cy="267" r="1" fill="#d7c8b5"/><circle cx="148" cy="404" r="2" fill="#d7c8b5"/><circle cx="237" cy="541" r="3" fill="#d7c8b5"/><circle cx="326" cy="678" r="1" fill="#d7c8b5"/><circle cx="415" cy="815" r="2" fill="#d7c8b5"/><circle cx="504" cy="112" r="3" fill="#d7c8b5"/><circle cx="33" cy="249" r="1" fill="#d7c8b5"/><circle cx="122" cy="386" r="2" fill="#d7c8b5"/><circle cx="211" cy="523" r="3" fill="#d7c8b5"/><circle cx="300" cy="660" r="1" fill="#d7c8b5"/><circle cx="389" cy="797" r="2" fill="#d7c8b5"/><circle cx="478" cy="94" r="3" fill="#d7c8b5"/><circle cx="7" cy="231" r="1" fill="#d7c8b5"/><circle cx="96" cy="368" r="2" fill="#d7c8b5"/><circle cx="185" cy="505" r="3" fill="#d7c8b5"/><circle cx="274" cy="642" r="1" fill="#d7c8b5"/><circle cx="363" cy="779" r="2" fill="#d7c8b5"/><circle cx="452" cy="76" r="3" fill="#d7c8b5"/><circle cx="541" cy="213" r="1" fill="#d7c8b5"/>
    </g>
    <g>
    <ellipse cx="140" cy="132" rx="58" ry="72" fill="#b8dbe8"/>
    <ellipse cx="230" cy="118" rx="54" ry="68" fill="#f1d3bd"/>
    <ellipse cx="326" cy="128" rx="56" ry="70" fill="#d6e3d5"/>
    <ellipse cx="418" cy="116" rx="54" ry="68" fill="#efc1ca"/>
    <g stroke="#d1a980" stroke-width="2" opacity=".65">
      <path d="M140 204 C160 300 200 370 230 470"/>
      <path d="M230 186 C240 280 250 370 254 470"/>
      <path d="M326 198 C310 300 292 390 274 470"/>
      <path d="M418 184 C390 310 336 390 286 470"/>
    </g>
  </g><g transform="translate(280 570) scale(0.58)">
    <circle cx="-48" cy="-48" r="34" fill="#d8b27d"/>
    <circle cx="48" cy="-48" r="34" fill="#d8b27d"/>
    <circle cx="0" cy="0" r="86" fill="#d6a96f"/>
    <ellipse cx="0" cy="28" rx="44" ry="34" fill="#f3dfbf"/>
    <circle cx="-28" cy="-16" r="7" fill="#3b2f28"/>
    <circle cx="28" cy="-16" r="7" fill="#3b2f28"/>
    <ellipse cx="0" cy="8" rx="13" ry="9" fill="#3b2f28"/>
    <path d="M-12 22 Q0 34 12 22" stroke="#3b2f28" stroke-width="4" fill="none"/>
  </g>
  </svg>